<?xml version="1.0" standalone="no"?>
<!DOCTYPE svg PUBLIC "-//W3C//DTD SVG 20010904//EN"
 "http://www.w3.org/TR/2001/REC-SVG-20010904/DTD/svg10.dtd">
<svg version="1.0" xmlns="http://www.w3.org/2000/svg"
 width="512.000000pt" height="512.000000pt" viewBox="0 0 512.000000 512.000000"
 preserveAspectRatio="xMidYMid meet">

<g transform="translate(0.000000,512.000000) scale(0.100000,-0.100000)"
fill="#000000" stroke="none">
<path d="M1910 4360 c-241 -4 -289 -8 -310 -21 -14 -9 -36 -19 -50 -22 -65
-16 -190 -169 -190 -232 0 -32 -48 -125 -64 -125 -7 0 -21 -9 -31 -20 -10 -11
-24 -20 -31 -20 -16 0 -212 -208 -264 -280 -22 -30 -56 -83 -75 -117 -20 -35
-41 -65 -46 -69 -16 -9 -10 -44 8 -51 10 -4 29 -15 42 -25 50 -38 125 -8 145
59 10 33 206 203 233 203 8 0 24 7 37 15 32 21 44 4 48 -70 l3 -60 70 -5 c44
-3 79 -12 95 -22 13 -10 30 -18 37 -18 21 0 101 -59 139 -103 20 -23 44 -61
54 -83 10 -23 23 -45 29 -48 6 -4 11 -20 11 -35 0 -16 8 -39 19 -52 12 -16 20
-49 24 -97 3 -41 11 -80 18 -88 9 -11 52 -14 215 -14 112 0 204 3 204 8 1 4 1
143 1 310 1 350 -7 325 109 336 36 3 428 8 872 11 445 3 818 9 830 14 76 29
96 113 78 316 -16 169 -37 224 -109 284 -27 23 -53 41 -58 41 -6 0 -20 9 -33
20 -13 11 -30 20 -38 20 -8 0 -29 9 -46 20 -31 19 -57 19 -862 22 -456 2 -957
1 -1114 -2z"/>
<path d="M3555 3326 c-41 -19 -68 -52 -91 -111 -17 -47 -19 -88 -20 -635 l-2
-585 24 -51 c35 -75 88 -109 170 -109 56 0 66 3 93 29 49 47 53 74 42 271 -6
98 -11 391 -11 652 l0 475 -28 27 c-41 41 -127 59 -177 37z"/>
<path d="M1350 3281 c-22 -21 -41 -47 -41 -57 -1 -11 -2 -260 -3 -554 -1 -294
-5 -572 -10 -618 -11 -101 5 -146 66 -186 48 -31 96 -33 131 -6 14 11 31 20
39 20 17 0 68 64 68 87 0 10 9 29 20 43 19 24 20 45 20 619 l0 593 -41 49 -41
49 -84 0 -84 0 -40 -39z"/>
<path d="M981 3134 c-24 -13 -57 -38 -73 -56 l-28 -32 0 -470 0 -471 34 -35
c18 -19 44 -43 57 -52 26 -20 104 -24 115 -7 3 6 22 17 40 25 25 11 34 20 34
38 0 13 9 43 20 67 18 42 20 67 20 475 l0 430 -24 33 c-36 48 -85 81 -120 80
-17 0 -51 -11 -75 -25z"/>
<path d="M3990 3145 c-14 -8 -33 -18 -42 -22 -9 -4 -28 -25 -42 -46 l-26 -38
0 -460 c0 -458 0 -461 22 -492 44 -64 79 -86 134 -87 57 0 101 26 140 84 l24
35 0 455 0 454 -27 41 c-19 29 -43 49 -81 66 -63 29 -69 30 -102 10z"/>
<path d="M595 2770 c-27 -16 -65 -48 -82 -71 -31 -39 -33 -47 -33 -121 0 -83
7 -100 66 -161 50 -52 66 -58 139 -55 l70 3 3 197 2 196 -26 21 c-36 28 -79
26 -139 -9z"/>
<path d="M1767 2793 c-4 -3 -7 -91 -7 -194 0 -139 3 -190 13 -196 6 -4 86 -8
177 -9 107 -1 202 -7 270 -19 93 -16 152 -17 556 -13 308 4 458 9 472 17 12 6
33 31 47 55 24 40 25 51 25 189 0 119 -3 148 -16 161 -14 14 -98 16 -773 16
-417 0 -761 -3 -764 -7z"/>
<path d="M4344 2792 c-29 -19 -34 -56 -34 -230 0 -210 -1 -207 94 -207 53 0
67 5 99 30 21 17 51 49 68 73 26 39 29 51 29 124 0 78 -1 83 -35 123 -47 58
-112 95 -167 95 -24 0 -48 -4 -54 -8z"/>
<path d="M1852 2268 c-8 -8 -12 -46 -12 -105 0 -89 -12 -136 -51 -203 -5 -8
-15 -26 -22 -40 -35 -71 -175 -200 -217 -200 -12 0 -33 -9 -47 -20 -19 -15
-41 -20 -84 -20 -32 0 -61 -5 -64 -10 -8 -13 -8 -246 0 -292 12 -69 -40 -77
-85 -12 -14 19 -35 48 -47 63 -12 15 -32 48 -46 73 -13 25 -31 56 -40 69 -10
13 -17 31 -17 41 0 9 -6 23 -13 30 -8 7 -20 26 -28 43 -20 41 -92 64 -148 45
-38 -12 -81 -56 -81 -82 1 -19 34 -110 51 -138 8 -14 19 -32 24 -41 6 -10 25
-38 43 -63 17 -26 32 -50 32 -53 0 -3 17 -26 38 -52 21 -25 50 -64 65 -86 49
-75 266 -286 379 -371 62 -46 117 -84 124 -84 6 0 19 -9 29 -20 10 -11 26 -20
35 -20 9 0 25 -9 35 -20 10 -11 26 -20 35 -20 10 0 29 -9 43 -20 14 -11 31
-20 39 -20 7 0 27 -9 43 -20 17 -11 37 -20 45 -20 8 0 32 -9 53 -20 20 -11 47
-20 60 -20 12 0 39 -8 59 -19 20 -10 57 -21 82 -24 26 -4 67 -13 94 -21 83
-26 341 -39 493 -26 74 6 154 17 179 25 25 7 65 17 90 20 25 4 56 13 70 20 14
7 43 16 65 20 22 4 51 13 65 20 14 8 52 25 85 40 33 14 67 30 75 36 8 5 31 17
50 25 19 9 58 32 86 50 28 19 55 34 60 34 5 0 17 8 26 18 9 9 31 28 48 42 117
94 206 180 283 275 86 106 168 222 195 275 7 14 23 43 37 65 13 22 29 51 35
65 5 14 17 37 25 52 8 14 15 48 15 76 0 46 -3 52 -45 91 -60 55 -107 57 -159
6 -20 -19 -36 -42 -36 -50 0 -9 -9 -33 -19 -53 -10 -20 -41 -81 -67 -135 -27
-53 -51 -97 -55 -97 -3 0 -11 -11 -17 -25 -11 -24 -29 -47 -122 -149 -104
-115 -267 -256 -296 -256 -7 0 -18 -9 -24 -20 -6 -11 -17 -20 -24 -20 -7 0
-25 -9 -39 -20 -14 -11 -30 -20 -37 -20 -7 0 -23 -9 -37 -20 -14 -11 -35 -20
-47 -20 -11 0 -34 -9 -51 -20 -16 -11 -41 -20 -54 -20 -14 0 -32 -7 -41 -15
-10 -9 -43 -20 -75 -25 -31 -5 -63 -14 -71 -21 -38 -31 -578 -33 -610 -2 -12
12 -14 72 -14 356 0 531 -12 1130 -22 1150 -8 15 -18 17 -81 11 -48 -4 -103
-1 -165 10 -110 19 -164 20 -180 4z"/>
<path d="M2962 1820 c-18 -11 -38 -20 -46 -20 -19 0 -100 -84 -130 -134 -24
-41 -26 -54 -26 -153 1 -114 7 -132 65 -204 35 -42 122 -109 143 -109 11 0 39
-9 63 -20 56 -25 86 -25 140 0 24 11 52 20 62 20 26 0 105 67 135 115 31 48
72 160 72 195 0 55 -84 240 -109 240 -3 0 -19 11 -35 25 -16 14 -36 25 -43 25
-8 0 -26 9 -40 20 -37 29 -203 29 -251 0z"/>
</g>
</svg>
